<?xml version="1.0" encoding="UTF-8" standalone="no"?>
<svg
   enable-background="new 0 0 64 64"
   viewBox="0 0 64 64"
   version="1.1"
   id="svg8"
   sodipodi:docname="Epoch - Cassette Vision.svg"
   inkscape:version="1.4 (e7c3feb1, 2024-10-09)"
   xmlns:inkscape="http://www.inkscape.org/namespaces/inkscape"
   xmlns:sodipodi="http://sodipodi.sourceforge.net/DTD/sodipodi-0.dtd"
   xmlns="http://www.w3.org/2000/svg"
   xmlns:svg="http://www.w3.org/2000/svg">
  <defs
     id="defs8" />
  <sodipodi:namedview
     id="namedview8"
     pagecolor="#ffffff"
     bordercolor="#000000"
     borderopacity="0.25"
     inkscape:showpageshadow="2"
     inkscape:pageopacity="0.0"
     inkscape:pagecheckerboard="0"
     inkscape:deskcolor="#d1d1d1"
     inkscape:zoom="14.728414"
     inkscape:cx="20.606428"
     inkscape:cy="55.335218"
     inkscape:window-width="1104"
     inkscape:window-height="799"
     inkscape:window-x="0"
     inkscape:window-y="25"
     inkscape:window-maximized="0"
     inkscape:current-layer="g8"
     showgrid="true">
    <inkscape:grid
       id="grid1"
       units="px"
       originx="0"
       originy="0"
       spacingx="1"
       spacingy="1"
       empcolor="#0099e5"
       empopacity="0.30196078"
       color="#0099e5"
       opacity="0.14901961"
       empspacing="5"
       enabled="true"
       visible="true" />
  </sodipodi:namedview>
  <g
     fill="#fff"
     id="g8">
    <path
       id="rect8"
       style="fill:#ffffff;fill-opacity:1"
       d="M 4.9941406 9.9570312 L 4.9941406 55.472656 L 59.152344 55.472656 L 59.152344 9.9570312 L 4.9941406 9.9570312 z M 25.982422 13.244141 L 38.027344 13.244141 L 38.027344 43.945312 L 56.060547 43.945312 L 56.060547 53.117188 L 7.9023438 53.117188 L 7.9023438 43.945312 L 25.982422 43.945312 L 25.982422 13.244141 z M 15.005859 13.935547 A 5 5 0 0 1 20.005859 18.935547 A 5 5 0 0 1 15.005859 23.935547 A 5 5 0 0 1 10.005859 18.935547 A 5 5 0 0 1 15.005859 13.935547 z M 48.947266 13.96875 A 5 5 0 0 1 53.947266 18.96875 A 5 5 0 0 1 48.947266 23.96875 A 5 5 0 0 1 43.947266 18.96875 A 5 5 0 0 1 48.947266 13.96875 z M 48.994141 29.037109 A 5 5 0 0 1 53.994141 34.037109 A 5 5 0 0 1 48.994141 39.037109 A 5 5 0 0 1 43.994141 34.037109 A 5 5 0 0 1 48.994141 29.037109 z M 14.958984 29.175781 A 5 5 0 0 1 19.958984 34.175781 A 5 5 0 0 1 14.958984 39.175781 A 5 5 0 0 1 9.9589844 34.175781 A 5 5 0 0 1 14.958984 29.175781 z " />
    <rect
       style="fill:#ffffff"
       id="rect1"
       width="3.8381019"
       height="2.8546762"
       x="36.957119"
       y="47.085808" />
    <rect
       style="fill:#ffffff"
       id="rect1-2"
       width="3.8250439"
       height="2.9207883"
       x="43.157162"
       y="47.079296" />
    <rect
       style="fill:#ffffff"
       id="rect1-4"
       width="3.935668"
       height="2.8730724"
       x="22.966312"
       y="47.033401" />
    <rect
       style="fill:#ffffff"
       id="rect1-8"
       width="4.0333157"
       height="2.8915498"
       x="16.983418"
       y="47.083542" />
    <rect
       style="fill:#ffffff"
       id="rect2"
       width="10.054599"
       height="3.0876329"
       x="26.920069"
       y="15.940202" />
    <rect
       style="fill:#ffffff"
       id="rect3"
       width="2.1946912"
       height="2.1551063"
       x="30.889606"
       y="35.941685" />
    <rect
       style="fill:#ffffff"
       id="rect4"
       width="2.1916289"
       height="2.2707992"
       x="34.810055"
       y="35.903629" />
    <rect
       style="fill:#ffffff"
       id="rect5"
       width="2.1375921"
       height="2.0584219"
       x="26.920069"
       y="35.970234" />
    <ellipse
       style="fill:#ffffff"
       id="path5"
       cx="31.907782"
       cy="31.022099"
       rx="1.0093353"
       ry="1.0489203" />
    <ellipse
       style="fill:#ffffff"
       id="path5-7"
       cx="11.924684"
       cy="48.073944"
       rx="1.0093353"
       ry="1.0489203" />
    <ellipse
       style="fill:#ffffff"
       id="path5-9"
       cx="51.938873"
       cy="48.061661"
       rx="1.0093353"
       ry="1.0489203" />
  </g>
</svg>
